<svg width="32" height="32" viewBox="0 0 32 32" fill="none" xmlns="http://www.w3.org/2000/svg">
<g clip-path="url(#clip0_4575_27673)">
<path d="M13 9V17H24L28 25L31 24" stroke="#00B955" stroke-width="1.8" stroke-linecap="round" stroke-linejoin="round"/>
<path d="M13 9C14.6569 9 16 7.65685 16 6C16 4.34315 14.6569 3 13 3C11.3431 3 10 4.34315 10 6C10 7.65685 11.3431 9 13 9Z" stroke="#00B955" stroke-width="1.8" stroke-linecap="round" stroke-linejoin="round"/>
<path d="M21 12H14C11.8783 12 9.84344 12.8429 8.34315 14.3431C6.84285 15.8434 6 17.8783 6 20C6 22.1217 6.84285 24.1566 8.34315 25.6569C9.84344 27.1571 11.8783 28 14 28C17.7275 28 21.1125 25.45 22 22" stroke="#00B955" stroke-width="1.8" stroke-linecap="round" stroke-linejoin="round"/>
</g>
<defs>
<clipPath id="clip0_4575_27673">
<rect width="32" height="32" fill="white"/>
</clipPath>
</defs>
</svg>
