<svg width="28" height="28" viewBox="0 0 28 28" fill="none" xmlns="http://www.w3.org/2000/svg">
<mask id="mask0_6597_22662" style="mask-type:alpha" maskUnits="userSpaceOnUse" x="0" y="0" width="28" height="28">
<rect width="28" height="28" fill="#D9D9D9"/>
</mask>
<g mask="url(#mask0_6597_22662)">
<path d="M7.00009 12.775L5.83342 13.4167C5.5612 13.5722 5.26953 13.6111 4.95842 13.5333C4.64731 13.4556 4.41398 13.2806 4.25842 13.0083L1.92509 8.925C1.76953 8.65278 1.73064 8.36111 1.80842 8.05C1.8862 7.73889 2.0612 7.50556 2.33342 7.35L9.04175 3.5H11.0834C11.2584 3.5 11.3994 3.55347 11.5063 3.66042C11.6133 3.76736 11.6668 3.90833 11.6668 4.08333V4.66667C11.6668 5.30833 11.8952 5.85764 12.3522 6.31458C12.8091 6.77153 13.3584 7 14.0001 7C14.6418 7 15.1911 6.77153 15.648 6.31458C16.1049 5.85764 16.3334 5.30833 16.3334 4.66667V4.08333C16.3334 3.90833 16.3869 3.76736 16.4938 3.66042C16.6008 3.55347 16.7418 3.5 16.9168 3.5H18.9584L25.6668 7.35C25.939 7.50556 26.114 7.73889 26.1918 8.05C26.2695 8.36111 26.2306 8.65278 26.0751 8.925L23.7418 13.0083C23.5862 13.2806 23.3577 13.4507 23.0563 13.5188C22.7549 13.5868 22.4584 13.5431 22.1668 13.3875L21.0001 12.8042V23.3333C21.0001 23.6639 20.8883 23.941 20.6647 24.1646C20.4411 24.3882 20.164 24.5 19.8334 24.5H8.16675C7.8362 24.5 7.55911 24.3882 7.3355 24.1646C7.11189 23.941 7.00009 23.6639 7.00009 23.3333V12.775Z" fill="white"/>
</g>
</svg>
