<svg width="14" height="15" viewBox="0 0 14 15" fill="none" xmlns="http://www.w3.org/2000/svg">
<path d="M0.549805 3.88332L2.88314 5.21665M2.88314 5.21665L6.5498 7.21665M2.88314 5.21665L0.549805 5.88332M2.88314 5.21665L2.5498 2.88332M12.5498 10.55L10.2165 9.21665M10.2165 9.21665L6.5498 7.21665M10.2165 9.21665L10.5498 11.55M10.2165 9.21665L12.5498 8.54999M6.5498 7.21665L2.88314 9.21665M6.5498 7.21665V2.54999M6.5498 7.21665V11.55M6.5498 7.21665L10.2165 5.21665M2.88314 9.21665L0.549805 10.55M2.88314 9.21665L0.549805 8.54999M2.88314 9.21665L2.5498 11.55M6.5498 2.54999V0.549988M6.5498 2.54999L4.88314 1.88332M6.5498 2.54999L8.21647 1.88332M6.5498 11.55V13.8833M6.5498 11.55L8.21647 12.55M6.5498 11.55L4.88314 12.55M10.2165 5.21665L12.5498 3.88332M10.2165 5.21665L12.5498 5.88332M10.2165 5.21665L10.5498 2.88332" stroke="#82B5EF" stroke-width="1.1" stroke-linecap="round" stroke-linejoin="round"/>
</svg>
